<svg width="126" height="18" viewBox="0 0 126 18" fill="none" xmlns="http://www.w3.org/2000/svg">
<path d="M10.94 7.48C10.94 8.29333 10.7533 9.04 10.38 9.72C10.0067 10.3867 9.43333 10.9267 8.66 11.34C7.88667 11.7533 6.92667 11.96 5.78 11.96H3.66V17H0.24V2.96H5.78C6.9 2.96 7.84667 3.15333 8.62 3.54C9.39333 3.92667 9.97333 4.46 10.36 5.14C10.7467 5.82 10.94 6.6 10.94 7.48ZM5.52 9.24C6.17333 9.24 6.66 9.08667 6.98 8.78C7.3 8.47333 7.46 8.04 7.46 7.48C7.46 6.92 7.3 6.48667 6.98 6.18C6.66 5.87333 6.17333 5.72 5.52 5.72H3.66V9.24H5.52ZM19.8805 17L16.9605 11.7H16.1405V17H12.7205V2.96H18.4605C19.5671 2.96 20.5071 3.15333 21.2805 3.54C22.0671 3.92667 22.6538 4.46 23.0405 5.14C23.4271 5.80667 23.6205 6.55333 23.6205 7.38C23.6205 8.31333 23.3538 9.14667 22.8205 9.88C22.3005 10.6133 21.5271 11.1333 20.5005 11.44L23.7405 17H19.8805ZM16.1405 9.28H18.2605C18.8871 9.28 19.3538 9.12667 19.6605 8.82C19.9805 8.51333 20.1405 8.08 20.1405 7.52C20.1405 6.98667 19.9805 6.56667 19.6605 6.26C19.3538 5.95333 18.8871 5.8 18.2605 5.8H16.1405V9.28ZM32.4073 17.14C31.0873 17.14 29.874 16.8333 28.7673 16.22C27.674 15.6067 26.8007 14.7533 26.1473 13.66C25.5073 12.5533 25.1873 11.3133 25.1873 9.94C25.1873 8.56667 25.5073 7.33333 26.1473 6.24C26.8007 5.14667 27.674 4.29333 28.7673 3.68C29.874 3.06667 31.0873 2.76 32.4073 2.76C33.7273 2.76 34.934 3.06667 36.0273 3.68C37.134 4.29333 38.0007 5.14667 38.6273 6.24C39.2673 7.33333 39.5873 8.56667 39.5873 9.94C39.5873 11.3133 39.2673 12.5533 38.6273 13.66C37.9873 14.7533 37.1207 15.6067 36.0273 16.22C34.934 16.8333 33.7273 17.14 32.4073 17.14ZM32.4073 14.02C33.5273 14.02 34.4207 13.6467 35.0873 12.9C35.7673 12.1533 36.1073 11.1667 36.1073 9.94C36.1073 8.7 35.7673 7.71333 35.0873 6.98C34.4207 6.23333 33.5273 5.86 32.4073 5.86C31.274 5.86 30.3673 6.22667 29.6873 6.96C29.0207 7.69333 28.6873 8.68667 28.6873 9.94C28.6873 11.18 29.0207 12.1733 29.6873 12.92C30.3673 13.6533 31.274 14.02 32.4073 14.02ZM52.19 7.48C52.19 8.29333 52.0033 9.04 51.63 9.72C51.2567 10.3867 50.6833 10.9267 49.91 11.34C49.1367 11.7533 48.1767 11.96 47.03 11.96H44.91V17H41.49V2.96H47.03C48.15 2.96 49.0967 3.15333 49.87 3.54C50.6433 3.92667 51.2233 4.46 51.61 5.14C51.9967 5.82 52.19 6.6 52.19 7.48ZM46.77 9.24C47.4233 9.24 47.91 9.08667 48.23 8.78C48.55 8.47333 48.71 8.04 48.71 7.48C48.71 6.92 48.55 6.48667 48.23 6.18C47.91 5.87333 47.4233 5.72 46.77 5.72H44.91V9.24H46.77ZM57.3905 5.7V8.54H61.9705V11.18H57.3905V14.26H62.5705V17H53.9705V2.96H62.5705V5.7H57.3905ZM71.9508 17L69.0308 11.7H68.2108V17H64.7908V2.96H70.5308C71.6374 2.96 72.5774 3.15333 73.3508 3.54C74.1374 3.92667 74.7241 4.46 75.1108 5.14C75.4974 5.80667 75.6908 6.55333 75.6908 7.38C75.6908 8.31333 75.4241 9.14667 74.8908 9.88C74.3708 10.6133 73.5974 11.1333 72.5708 11.44L75.8108 17H71.9508ZM68.2108 9.28H70.3308C70.9574 9.28 71.4241 9.12667 71.7308 8.82C72.0508 8.51333 72.2108 8.08 72.2108 7.52C72.2108 6.98667 72.0508 6.56667 71.7308 6.26C71.4241 5.95333 70.9574 5.8 70.3308 5.8H68.2108V9.28ZM87.9377 2.96V5.7H84.2177V17H80.7977V5.7H77.0777V2.96H87.9377ZM101.694 2.96L96.8341 12.36V17H93.4141V12.36L88.5541 2.96H92.4341L95.1541 8.84L97.8541 2.96H101.694ZM104.672 17.16C104.072 17.16 103.579 16.9867 103.192 16.64C102.819 16.28 102.632 15.84 102.632 15.32C102.632 14.7867 102.819 14.34 103.192 13.98C103.579 13.62 104.072 13.44 104.672 13.44C105.259 13.44 105.739 13.62 106.112 13.98C106.499 14.34 106.692 14.7867 106.692 15.32C106.692 15.84 106.499 16.28 106.112 16.64C105.739 16.9867 105.259 17.16 104.672 17.16ZM110.437 4.68C109.837 4.68 109.343 4.50667 108.957 4.16C108.583 3.8 108.397 3.36 108.397 2.84C108.397 2.30667 108.583 1.86667 108.957 1.52C109.343 1.16 109.837 0.979999 110.437 0.979999C111.023 0.979999 111.503 1.16 111.877 1.52C112.263 1.86667 112.457 2.30667 112.457 2.84C112.457 3.36 112.263 3.8 111.877 4.16C111.503 4.50667 111.023 4.68 110.437 4.68ZM112.137 5.84V17H108.717V5.84H112.137ZM119.695 17.16C118.602 17.16 117.615 16.9267 116.735 16.46C115.868 15.9933 115.182 15.3267 114.675 14.46C114.182 13.5933 113.935 12.58 113.935 11.42C113.935 10.2733 114.188 9.26667 114.695 8.4C115.202 7.52 115.895 6.84667 116.775 6.38C117.655 5.91333 118.642 5.68 119.735 5.68C120.828 5.68 121.815 5.91333 122.695 6.38C123.575 6.84667 124.268 7.52 124.775 8.4C125.282 9.26667 125.535 10.2733 125.535 11.42C125.535 12.5667 125.275 13.58 124.755 14.46C124.248 15.3267 123.548 15.9933 122.655 16.46C121.775 16.9267 120.788 17.16 119.695 17.16ZM119.695 14.2C120.348 14.2 120.902 13.96 121.355 13.48C121.822 13 122.055 12.3133 122.055 11.42C122.055 10.5267 121.828 9.84 121.375 9.36C120.935 8.88 120.388 8.64 119.735 8.64C119.068 8.64 118.515 8.88 118.075 9.36C117.635 9.82667 117.415 10.5133 117.415 11.42C117.415 12.3133 117.628 13 118.055 13.48C118.495 13.96 119.042 14.2 119.695 14.2Z" fill="black"/>
</svg>
